<svg xmlns="http://www.w3.org/2000/svg" width="1280" height="1280" viewBox="0 0 1280 1280">
  <defs>
    <linearGradient id="logoGradient" x1="0%" y1="0%" x2="100%" y2="100%">
      <stop offset="0%" style="stop-color:#4F4FFF" />
      <stop offset="50%" style="stop-color:#845EFF" />
      <stop offset="100%" style="stop-color:#A455FF" />
    </linearGradient>
  </defs>
  <path d="M640 85.333c-152.917 0-277.333 124.416-277.333 277.334 0 152.917 124.416 277.333 277.333 277.333 152.917 0 277.333-124.416 277.333-277.333 0-152.918-124.416-277.334-277.333-277.334zM640 576c-117.632 0-213.333-95.701-213.333-213.333 0-117.632 95.701-213.334 213.333-213.334 117.632 0 213.333 95.702 213.333 213.334 0 117.632-95.701 213.333-213.333 213.333z" fill="url(#logoGradient)"/>
  <path d="M640 682.667c-211.733 0-384 172.267-384 384v128h768v-128c0-211.733-172.267-384-384-384zm0 448h-320v-64c0-176.448 143.552-320 320-320s320 143.552 320 320v64h-320z" fill="url(#logoGradient)"/>
</svg>